<svg width="34" height="29" viewBox="0 0 34 29" fill="none" xmlns="http://www.w3.org/2000/svg">
<path d="M31.277 18.0669C31.0239 18.454 30.5359 18.2959 30.2675 18.2091C30.2625 18.2077 30.2576 18.2062 30.2527 18.2048C30.189 18.1843 30.1287 18.1789 30.0581 18.1731C29.8897 18.1592 29.6623 18.1403 29.1875 17.8935C29.0494 17.9026 28.9112 17.9076 28.7731 17.9076C27.2813 17.9076 25.7895 17.5857 24.2977 17.2002C24.2789 17.2022 24.2597 17.2042 24.2404 17.2063C23.8662 17.2462 23.4022 17.2957 23.1107 17.1544C22.7401 16.9748 22.4884 16.8081 22.2816 16.6643C21.0967 16.3541 19.9118 16.0769 18.7269 15.9623C18.3556 15.9264 17.9842 15.9068 17.6128 15.9068C17.2708 15.9068 16.9288 15.9191 16.5868 15.9422C16.3876 16.0265 16.1983 16.1266 16.0227 16.2193C15.776 16.3496 15.5563 16.4654 15.3749 16.5031C14.9377 16.5941 14.4419 16.4505 14.0736 16.3438C14.0134 16.3264 13.9566 16.3099 13.9041 16.2956C13.6116 16.3485 13.3191 16.405 13.0266 16.4628C13.0071 16.4307 12.9874 16.3971 12.9674 16.3627C12.7178 15.9336 12.411 15.9391 11.928 15.9471C11.7177 15.9506 11.4739 15.9543 11.1869 15.9233C11.002 15.9033 10.907 15.7331 10.8293 15.5943C10.8065 15.5535 10.7851 15.5153 10.7634 15.4844C10.6891 15.3788 10.6108 15.493 10.5183 15.6279C10.3983 15.8029 10.2543 16.0131 10.0641 15.8232C9.45798 15.2181 9.19092 15.6286 8.98889 15.9392C8.92963 16.0303 8.87591 16.1126 8.82092 16.1583C8.6426 16.3065 8.38855 16.1596 8.19653 15.9581C8.04428 15.7983 7.73968 15.9567 7.50867 16.1583C7.42132 16.2345 7.30319 16.2364 7.16406 16.2382C7.02009 16.2401 6.8535 16.2418 6.67529 16.3273C6.22495 16.5434 5.98561 16.6482 5.79321 16.732C5.73836 16.7559 5.68727 16.7777 5.63623 16.8004C5.47494 16.8721 5.27479 16.9312 5.07214 16.9908C4.82963 17.0622 4.58351 17.1346 4.39624 17.2313C3.91084 17.129 3.42541 17.0024 2.94006 16.8761C2.69076 16.8105 2.45155 16.4412 2.27527 15.8323C2.09901 15.223 2.00001 14.4285 2 13.6051C2 12.7817 2.09902 11.9873 2.27527 11.3779C2.45155 10.7691 2.69076 10.3992 2.94006 10.3336C3.44229 10.2029 3.94462 10.0721 4.4469 9.96797C5.05874 9.84113 5.67063 9.75374 6.28247 9.75374C6.71048 9.75374 7.13851 9.77337 7.56653 9.80867C7.6106 9.8123 7.65466 9.81631 7.69873 9.82027C8.0583 9.61752 8.41719 9.43311 8.67004 9.36738C8.87882 9.31312 9.03102 9.42132 9.16138 9.51386C9.25108 9.57755 9.33045 9.63392 9.41077 9.62495C9.45389 9.62013 9.51281 9.60763 9.58386 9.5926C9.87397 9.53125 10.3667 9.42712 10.8162 9.62495C11.0156 9.71274 11.2473 9.88577 11.4685 10.051C11.7848 10.2872 12.0797 10.5074 12.2286 10.4398C12.4901 10.3209 12.79 10.4215 13.0549 10.5106C13.3077 10.5955 13.5287 10.6697 13.6544 10.5326C13.8046 10.3686 13.9327 10.4354 14.1232 10.5344C14.2553 10.603 14.4174 10.6868 14.6377 10.7206C14.8921 10.7595 15.072 10.8744 15.225 10.972C15.4402 11.1095 15.6022 11.2128 15.8436 11.0227C16.1118 10.8114 16.3921 10.677 16.6128 10.7437C16.7133 10.7741 16.8283 10.7668 16.948 10.759C17.1064 10.7487 17.273 10.7381 17.4252 10.8139C17.5505 10.8764 17.6542 11.0363 17.7458 11.1777C17.7745 11.2218 17.8019 11.264 17.8285 11.301C17.9283 11.299 18.0282 11.296 18.1281 11.2912C18.1442 11.2655 18.1612 11.237 18.179 11.2076C18.268 11.0601 18.3774 10.8791 18.5129 10.7889C18.7274 10.6462 18.9156 10.7356 19.1141 10.8304C19.2687 10.9043 19.4295 10.9813 19.6139 10.9537C19.7396 10.9349 19.8828 10.8695 20.0247 10.8048C20.2354 10.7086 20.4435 10.614 20.5881 10.6742C20.6423 10.6967 20.6889 10.7971 20.735 10.8969C20.7352 10.8976 20.7354 10.8982 20.7356 10.8988C20.7387 10.9056 20.7419 10.9122 20.745 10.9189C21.0972 10.8424 21.4494 10.7581 21.8015 10.6693C21.832 10.6435 21.8629 10.618 21.8934 10.593C22.0428 10.4706 22.1879 10.3517 22.2825 10.1828C22.385 9.99981 22.6428 9.8934 22.9144 9.7812C23.0923 9.70773 23.2762 9.63186 23.4264 9.53034C23.5142 9.47102 23.5974 9.57445 23.6831 9.6811C23.763 9.78061 23.8451 9.88274 23.9348 9.8575C23.9798 9.84483 24.0283 9.80199 24.0801 9.75618C24.1257 9.71585 24.1739 9.67311 24.2244 9.64692C24.2713 9.62267 24.3757 9.67901 24.5096 9.75068C24.5924 9.79498 24.6865 9.84501 24.7852 9.88619C25.046 9.82173 25.307 9.75993 25.5679 9.70247C25.6223 9.61178 25.6695 9.49407 25.7069 9.34296C25.7337 9.23455 25.7566 9.10495 25.78 8.97247C25.812 8.79219 25.845 8.60588 25.8905 8.45733C25.9261 8.34124 25.968 8.29499 25.9962 8.34319C26.0093 8.36567 26.0194 8.40803 26.0286 8.44634C26.039 8.49022 26.0484 8.52925 26.0598 8.52813C26.068 8.52724 26.0766 8.49616 26.0872 8.45855C26.104 8.39847 26.1259 8.32092 26.1592 8.31816C26.2831 8.30791 26.424 8.33273 26.562 8.35723C26.7155 8.38447 26.8655 8.4109 26.985 8.38774C27.1189 8.36179 27.3096 8.47717 27.5007 8.59222C27.634 8.67247 27.7676 8.75232 27.8821 8.78509C27.9943 8.8172 28.1112 8.75337 28.2244 8.6911C28.3602 8.61634 28.4909 8.54413 28.6019 8.64532C28.6244 8.66587 28.6523 8.79095 28.6873 8.94745C28.7121 9.05836 28.7406 9.18517 28.7731 9.30207C28.9144 9.30207 29.0558 9.30721 29.1971 9.31672C29.2021 9.29974 29.2073 9.28247 29.2124 9.26484C29.2125 9.26443 29.2126 9.26402 29.2126 9.26361C29.3287 8.86558 29.4876 8.32113 29.7108 8.64593C29.7676 8.7285 29.8033 8.881 29.8354 9.01825C29.8671 9.15304 29.8953 9.27366 29.9366 9.29902C29.9836 9.32774 30.039 9.24497 30.0995 9.15497C30.1844 9.0286 30.2791 8.88739 30.3743 9.01886C30.3808 9.02783 30.3877 9.03768 30.395 9.04755C30.464 9.14107 30.566 9.2794 30.6676 9.55781C30.9689 9.63213 31.2703 9.71916 31.5717 9.81416C32.074 9.97253 32.5764 10.1531 33.0786 10.3336C33.323 10.4224 33.5573 10.8015 33.7301 11.4084C33.9029 12.0162 34 12.7972 34 13.6051C34 14.4129 33.9029 15.1935 33.7301 15.8012C33.5573 16.4081 33.323 16.7872 33.0786 16.8761C32.6802 17.0192 32.2816 17.1626 31.8831 17.2948C31.8622 17.3115 31.8412 17.3278 31.8203 17.343C31.665 17.4562 31.5208 17.6836 31.3766 17.9112C31.3435 17.9635 31.3103 18.0159 31.277 18.0669ZM6.42771 10.787C6.805 10.5943 6.96339 10.9259 7.05061 11.1082C7.05232 11.1114 7.05402 11.1146 7.05573 11.1178C7.07645 11.1611 7.10493 11.191 7.13858 11.2257C7.21881 11.3085 7.32714 11.4205 7.42276 11.8153C7.50147 11.8673 7.57759 11.9226 7.65058 11.9816C8.43885 12.6196 9.02461 13.5077 9.57037 14.4453C9.58158 14.4518 9.59299 14.4584 9.60452 14.4651C9.82737 14.5941 10.1036 14.754 10.1688 14.9885C10.2516 15.2866 10.2798 15.5238 10.2986 15.724C10.7295 16.4719 11.1813 17.194 11.7353 17.7898C11.909 17.9765 12.0929 18.1506 12.2891 18.3094C12.4698 18.4556 12.6583 18.5923 12.8535 18.7206C13.0118 18.7403 13.1748 18.7434 13.3259 18.7464C13.5383 18.7506 13.7272 18.7546 13.8468 18.8028C14.135 18.9191 14.3067 19.2427 14.4342 19.4831C14.455 19.5224 14.4747 19.5596 14.4934 19.5931C14.6812 19.6771 14.8714 19.7582 15.0623 19.8383C15.0524 19.8717 15.0417 19.9062 15.0306 19.9415C14.8925 20.3818 15.0581 20.5087 15.3184 20.7091C15.4317 20.7963 15.5629 20.8976 15.695 21.0445C15.7801 21.1391 15.7233 21.312 15.677 21.4531C15.6633 21.4946 15.6506 21.5335 15.6427 21.5667C15.6155 21.6806 15.7287 21.6253 15.8624 21.56C16.0359 21.4753 16.2443 21.3735 16.2253 21.6024C16.1649 22.332 16.5643 22.1271 16.8664 21.9721C16.955 21.9266 17.0352 21.8856 17.093 21.8736C17.2805 21.8346 17.3223 22.0574 17.297 22.2962C17.2769 22.4856 17.5375 22.4927 17.7864 22.4347C17.8805 22.4129 17.9442 22.4619 18.0188 22.52C18.0961 22.5801 18.1852 22.65 18.3331 22.6597C18.7071 22.6843 18.8994 22.7052 19.0538 22.7223C19.0978 22.7272 19.1385 22.7322 19.1798 22.7363C19.3101 22.7496 19.4531 22.7892 19.5976 22.8295C19.7707 22.8778 19.9463 22.9267 20.1061 22.9316C20.2982 23.2187 20.4751 23.5247 20.6521 23.8305C20.7425 23.988 20.6366 24.3774 20.3468 24.9261C20.0566 25.4751 19.6091 26.135 19.0911 26.7751C18.5731 27.4151 18.021 27.9904 17.5445 28.3887C17.0684 28.7866 16.7093 28.9718 16.5363 28.9162C16.1887 28.803 15.841 28.6899 15.5101 28.556C15.107 28.393 14.7287 28.1992 14.4054 27.9376C14.1792 27.7546 13.9654 27.5563 13.7614 27.3458C13.7404 27.3241 13.7196 27.3022 13.6989 27.2802C13.3813 27.2841 13.0757 27.274 12.9007 27.2169C12.7562 27.1698 12.7439 27.0206 12.7332 26.8929C12.7259 26.8051 12.7194 26.7273 12.6713 26.6999C12.6455 26.6852 12.6065 26.6698 12.5595 26.6511C12.3676 26.5747 12.0418 26.445 11.9287 26.099C11.8785 25.9454 11.865 25.7118 11.852 25.4888C11.8335 25.1699 11.8162 24.8726 11.6949 24.8615C11.482 24.8421 11.3868 24.6357 11.3029 24.4531C11.2227 24.279 11.1526 24.1269 10.9999 24.1797C10.8174 24.2429 10.7917 24.1362 10.7534 23.9778C10.7267 23.868 10.6938 23.7335 10.5986 23.6131C10.4887 23.4741 10.4658 23.3078 10.4465 23.1665C10.4192 22.9676 10.3986 22.818 10.1514 22.8625C9.87685 22.9121 9.64418 22.8967 9.56952 22.7505C9.53552 22.6838 9.4701 22.6404 9.402 22.5952C9.31183 22.5355 9.21711 22.4725 9.18441 22.3485C9.15747 22.2463 9.20327 22.0778 9.24381 21.9286C9.25646 21.882 9.26845 21.8376 9.2777 21.7974C9.22366 21.7563 9.16901 21.7159 9.11327 21.6769C9.08854 21.69 9.06164 21.7049 9.03377 21.7201C8.89391 21.7967 8.72222 21.8906 8.59389 21.9028C8.39078 21.922 8.34755 21.7721 8.30232 21.6134C8.2671 21.4899 8.23061 21.3612 8.1158 21.3039C8.03751 21.2648 7.92076 21.2544 7.80506 21.244C7.63322 21.2286 7.46372 21.2131 7.42515 21.1046C7.41069 21.0639 7.44923 20.9659 7.4877 20.8686C7.48797 20.868 7.48825 20.8675 7.48853 20.8669C7.49114 20.8603 7.49364 20.8538 7.49623 20.8472C7.26203 20.7561 7.02288 20.671 6.78091 20.5895C6.74856 20.5965 6.71626 20.6031 6.68435 20.6095C6.52843 20.6408 6.37695 20.6712 6.22075 20.7619C6.05144 20.8604 5.84829 20.8328 5.63416 20.8039C5.49394 20.7849 5.34902 20.7653 5.20583 20.78C5.12213 20.7885 5.14319 20.6725 5.16502 20.553C5.18538 20.4415 5.20626 20.327 5.14298 20.3082C5.11126 20.2989 5.05867 20.3114 5.00248 20.3249C4.95301 20.3367 4.90065 20.3493 4.85751 20.3481C4.81747 20.3469 4.79772 20.2584 4.77204 20.1455C4.75617 20.0756 4.73795 19.9965 4.7117 19.9223C4.53329 19.8608 4.35653 19.7973 4.18253 19.7304C4.09672 19.7776 3.99772 19.8489 3.8829 19.9504C3.80053 20.0232 3.70693 20.1142 3.61119 20.2071C3.48091 20.3336 3.34626 20.4643 3.22875 20.5603C3.13692 20.6354 3.08565 20.6534 3.10109 20.6038C3.1083 20.5808 3.12962 20.5435 3.14888 20.5098C3.17095 20.4712 3.19056 20.4369 3.18382 20.4329C3.17892 20.4301 3.15484 20.4506 3.1256 20.4753C3.07892 20.5148 3.01856 20.5657 2.99923 20.5536C2.92729 20.5086 2.86846 20.429 2.81095 20.351C2.74699 20.2642 2.68436 20.1795 2.60664 20.1464C2.51957 20.1093 2.49135 19.938 2.46275 19.7669C2.44279 19.6475 2.42248 19.5283 2.38257 19.4539C2.34346 19.3809 2.24156 19.3806 2.14257 19.3806C2.02376 19.3806 1.90929 19.3808 1.91427 19.2547C1.91533 19.2291 1.97929 19.12 2.05925 18.9834C2.11592 18.8865 2.18061 18.7758 2.23699 18.671C2.1623 18.6106 2.09082 18.5461 2.02212 18.4783C2.00881 18.4893 1.99524 18.5006 1.98142 18.5121C1.98112 18.5124 1.98082 18.5126 1.98052 18.5129C1.66878 18.7727 1.24232 19.128 1.32871 18.78C1.35067 18.6916 1.42773 18.5578 1.49707 18.4373C1.56517 18.319 1.62612 18.2132 1.62022 18.1758C1.61348 18.1334 1.53212 18.174 1.44356 18.2181C1.31922 18.2801 1.18029 18.3493 1.21274 18.2064C1.21495 18.1967 1.21746 18.186 1.21982 18.1753C1.24222 18.0731 1.27531 17.9219 1.39678 17.662C1.28431 17.4754 1.17981 17.2789 1.08034 17.0762C0.914547 16.7383 0.762669 16.3831 0.610809 16.028C0.537575 15.8544 0.652245 15.4595 0.942726 14.9139C1.23374 14.3675 1.67379 13.7189 2.18202 13.0909C2.69021 12.4629 3.23256 11.8977 3.70616 11.4992C4.17927 11.1013 4.54157 10.9068 4.72658 10.9423C5.0272 11.0014 5.32802 11.0604 5.62173 11.1281C5.64332 11.1239 5.66461 11.1203 5.68521 11.1174C5.83852 11.0958 6.05772 10.9807 6.27716 10.8654C6.32756 10.8389 6.37807 10.8124 6.42771 10.787ZM0.17334 8.70627C0.0372391 8.32059 0.33474 8.28746 0.498302 8.26913C0.501198 8.26866 0.504093 8.26819 0.506989 8.26773C0.545784 8.26334 0.573742 8.24812 0.606236 8.22993C0.683708 8.18656 0.788445 8.12805 1.13541 8.16884C1.18629 8.11717 1.23975 8.06874 1.29626 8.02422C1.90654 7.54331 2.71605 7.31525 3.56493 7.13714C3.57141 7.1295 3.57798 7.12171 3.58462 7.11385C3.71296 6.96185 3.87216 6.77345 4.07886 6.79044C4.34164 6.81203 4.54778 6.86179 4.72139 6.90812C5.3981 6.76978 6.05439 6.60551 6.61002 6.31352C6.78416 6.222 6.94826 6.11769 7.10018 5.99798C7.24008 5.88774 7.3724 5.76782 7.498 5.63943C7.52732 5.50904 7.54282 5.36938 7.55725 5.23993C7.57753 5.05803 7.59576 4.89632 7.6466 4.80817C7.76912 4.59579 8.06086 4.54872 8.27754 4.51381C8.31295 4.5081 8.34642 4.50275 8.37675 4.49702C8.46369 4.36123 8.54834 4.2225 8.63219 4.0828C8.66009 4.10178 8.6889 4.12178 8.71837 4.14234C9.08608 4.39894 9.2082 4.2957 9.40085 4.13374C9.48475 4.06321 9.58215 3.98166 9.71876 3.91353C9.80679 3.86962 9.95097 3.97264 10.0686 4.05667C10.1033 4.08138 10.1357 4.10446 10.1636 4.12171C10.2594 4.18077 10.2208 4.06581 10.1751 3.93003C10.1159 3.75388 10.0447 3.54236 10.24 3.63019C10.8625 3.91007 10.7177 3.50154 10.6081 3.1925C10.576 3.10184 10.547 3.01988 10.5412 2.96624C10.5224 2.79236 10.7172 2.82579 10.9206 2.9222C11.0818 2.99866 11.1083 2.77601 11.078 2.54321C11.0666 2.45519 11.1137 2.4156 11.1695 2.36932C11.2273 2.32143 11.2943 2.26638 11.3143 2.14177C11.3648 1.82685 11.3979 1.66743 11.4247 1.53957C11.4324 1.50311 11.4398 1.46955 11.4466 1.43527C11.4682 1.32694 11.5135 1.216 11.5595 1.10385C11.6146 0.969633 11.6704 0.833391 11.6872 0.697075C11.9491 0.62097 12.226 0.563917 12.5028 0.506662C12.6453 0.477802 12.9718 0.690762 13.4207 1.11213C13.8699 1.5339 14.4022 2.12602 14.9118 2.77274C15.4215 3.41948 15.8727 4.0754 16.1777 4.61082C16.4824 5.14585 16.6135 5.51353 16.5521 5.64539C16.4276 5.90995 16.303 6.17461 16.162 6.41831C15.9902 6.71518 15.794 6.98108 15.5437 7.17831C15.3686 7.31629 15.1813 7.43885 14.9844 7.54911C14.9641 7.56046 14.9436 7.57152 14.9231 7.58262C14.9015 7.85778 14.8688 8.11831 14.8061 8.25146C14.7542 8.36138 14.625 8.32546 14.5144 8.29479C14.4383 8.27368 14.3709 8.255 14.3436 8.28793C14.329 8.30562 14.3126 8.33444 14.2928 8.36914C14.2121 8.51085 14.075 8.75147 13.7687 8.74099C13.6328 8.73633 13.4309 8.67512 13.2381 8.61666C12.9625 8.53307 12.7056 8.4552 12.6865 8.55632C12.6531 8.73396 12.4682 8.75162 12.3047 8.76708C12.1487 8.78183 12.0124 8.79482 12.0458 8.94308C12.0859 9.12028 11.9921 9.10909 11.8529 9.09275C11.7564 9.08142 11.6382 9.06787 11.5272 9.1124C11.3991 9.16382 11.2544 9.13161 11.1313 9.10421C10.9582 9.06564 10.828 9.03669 10.8469 9.26385C10.8679 9.51621 10.8365 9.71215 10.7049 9.73089C10.6449 9.73942 10.6025 9.7823 10.5583 9.82697C10.4998 9.8861 10.4383 9.94814 10.3291 9.93764C10.2391 9.92899 10.0978 9.83685 9.97276 9.7553C9.93374 9.72986 9.89644 9.70562 9.86264 9.6851C9.82305 9.71889 9.78406 9.75343 9.74614 9.78934C9.75545 9.81476 9.76613 9.84261 9.77707 9.87143C9.83197 10.016 9.8992 10.1934 9.89959 10.308C9.90018 10.4892 9.76788 10.4797 9.62796 10.4692C9.51902 10.461 9.40552 10.4523 9.3472 10.5334C9.30744 10.5888 9.28933 10.6862 9.27134 10.7828C9.24463 10.9263 9.21805 11.0677 9.12167 11.0671C9.08555 11.0668 9.00437 11.003 8.92371 10.9394C8.92324 10.939 8.92278 10.9386 8.92232 10.9382C8.91685 10.9339 8.91146 10.9297 8.90601 10.9254C8.80929 11.099 8.7174 11.2788 8.62831 11.4621C8.63179 11.4922 8.63493 11.5221 8.63793 11.5516C8.65261 11.6959 8.66684 11.8361 8.73264 11.9992C8.80397 12.176 8.76438 12.3427 8.72269 12.5184C8.69539 12.6334 8.66711 12.7523 8.66852 12.8804C8.66933 12.9553 8.57124 12.9009 8.47019 12.8448C8.3759 12.7924 8.27911 12.7386 8.25804 12.7874C8.2475 12.8118 8.25415 12.8611 8.26132 12.9138C8.26763 12.9602 8.27436 13.0093 8.26992 13.0461C8.26574 13.0803 8.18814 13.0697 8.08899 13.0566C8.02772 13.0485 7.95828 13.0395 7.89242 13.039C7.82558 13.1737 7.75709 13.3064 7.68592 13.4356C7.71979 13.5244 7.77332 13.632 7.85155 13.7628C7.90769 13.8566 7.97855 13.9657 8.05095 14.0773C8.14948 14.2292 8.25128 14.3862 8.3246 14.5176C8.3819 14.6202 8.39336 14.6701 8.352 14.6413C8.33272 14.6279 8.30238 14.5979 8.27492 14.5707C8.24347 14.5396 8.21549 14.512 8.21152 14.5165C8.20869 14.5199 8.22442 14.5471 8.2434 14.58C8.27369 14.6326 8.31274 14.7006 8.30082 14.7135C8.25646 14.7615 8.18347 14.7874 8.11185 14.8127C8.03221 14.8408 7.95448 14.8683 7.91993 14.9251C7.88122 14.9886 7.73176 14.9595 7.58238 14.9307C7.47817 14.9107 7.37413 14.891 7.307 14.9022C7.24121 14.9131 7.2329 15.0009 7.22515 15.0863C7.21585 15.1888 7.20708 15.2877 7.09903 15.244C7.07712 15.2351 6.98829 15.1458 6.87712 15.0342C6.79833 14.9551 6.70817 14.8647 6.62253 14.7833C6.5647 14.8289 6.50369 14.8704 6.43998 14.9085C6.44844 14.9235 6.45703 14.9387 6.46585 14.9542C6.46606 14.9545 6.46628 14.9549 6.4665 14.9552C6.66537 15.3053 6.93736 15.7842 6.64501 15.601C6.5707 15.5544 6.4617 15.4462 6.36358 15.3487C6.26723 15.2531 6.18102 15.1674 6.14841 15.1608C6.11142 15.1534 6.13997 15.2363 6.17095 15.3265C6.21445 15.4531 6.26307 15.5945 6.14278 15.522C6.13457 15.517 6.12561 15.5115 6.11654 15.5061C6.03044 15.4549 5.90307 15.3791 5.6892 15.1932C5.51993 15.232 5.34278 15.2608 5.1607 15.2833C4.85719 15.3208 4.5399 15.341 4.22273 15.3611C4.06778 15.3701 3.73726 15.1479 3.29095 14.7269C2.8441 14.3053 2.32094 13.7231 1.82092 13.0885C1.32094 12.454 0.877533 11.8096 0.57209 11.2766C0.267124 10.7442 0.128365 10.3709 0.173347 10.2224C0.247734 9.98147 0.322044 9.74035 0.403282 9.5081C0.401443 9.48819 0.399979 9.46868 0.399109 9.45C0.392593 9.311 0.310829 9.08595 0.22892 8.86063C0.210106 8.80887 0.19125 8.75701 0.17334 8.70627Z" fill="black"/>
</svg>
